<?xml version="1.0" encoding="utf-8"?>
<!-- Generator: Adobe Illustrator 16.0.4, SVG Export Plug-In . SVG Version: 6.00 Build 0)  -->
<!DOCTYPE svg PUBLIC "-//W3C//DTD SVG 1.1//EN" "http://www.w3.org/Graphics/SVG/1.1/DTD/svg11.dtd">
<svg version="1.1" id="Layer_1" xmlns="http://www.w3.org/2000/svg" xmlns:xlink="http://www.w3.org/1999/xlink" x="0px" y="0px"
	 width="276.252px" height="212.715px" viewBox="0 0 276.252 212.715" enable-background="new 0 0 276.252 212.715"
	 xml:space="preserve">
<ellipse id="dezzie" fill="#D1B79F" cx="137.289" cy="107.728" rx="124.444" ry="93.333"/>
<path d="M225.472,113.41c-10.51-4.997-31.719-4.904-38.604-4.904c-0.05,0-0.089,0.01-0.138,0.014
	c-0.418-0.004-0.838-0.014-1.267-0.014c-5.271,0-9.828,0.32-13.776,0.883c-0.039,0-0.076,0-0.115,0.01
	c-0.098,0.01-0.195,0.033-0.283,0.045c-2.891,0.429-5.439,0.994-7.688,1.666c-7.812,2.082-15.264,4.826-25.871,4.826
	c-10.623,0-18.075-2.744-25.88-4.826c-2.246-0.672-4.805-1.238-7.686-1.666c-0.097-0.014-0.195-0.031-0.292-0.045
	c-0.039-0.01-0.077-0.01-0.116-0.01c-3.93-0.568-8.486-0.883-13.767-0.883c-0.438,0-0.846,0.01-1.277,0.014
	c-0.04-0.004-0.078-0.014-0.126-0.014c-6.888,0-28.089-0.093-38.607,4.904c-0.942,0.445-0.029,10.949,0.157,11.367
	c0.302,0.701,3.181,5.623,6.489,17.552l0,0c6.819,8.657,10.737,10.2,32.132,10.2c14.379,0,23.126,0.379,30.189-3.228
	c0.029-0.028-0.02,0.028,0,0c10.702-11.6,6.837-22.668,18.775-22.668s6.178,10.612,16.881,22.212c0.029,0.028,0,0,0,0
	c8.614,3.695,17.684,3.961,32.055,3.483c22.865-0.761,26.547-1.956,32.16-10.001h0.011c3.296-11.93,4.038-19.587,4.329-20.289
	c0.068-0.16,11.476-2.155,11.613-4.146c0.1-1.402-0.01-3.629,0-4.979C234.782,111.188,225.796,113.562,225.472,113.41z
	 M88.757,148.381c-26.134,0-28.207-1.867-29.282-16.693c-1.43-19.711,0.279-18.541,30.514-19.614
	c24.5-0.87,34.589,6.661,33.624,16.047C121.576,147.932,116.551,148.381,88.757,148.381z M184.787,148.381
	c-30.185,0.465-31.524-3.732-32.948-20.261c-0.811-9.399,7.473-15.815,33.624-16.047c31.515-0.278,31.472,1.671,30.511,19.614
	C215.198,146.152,210.004,147.992,184.787,148.381z"/>
<path fill="#3A2C28" d="M24.813,144.699c-2.489-5.201,9.006-14.119,6.902-17.25c-3.673-5.461,2.401,12.058,0,0
	c8.635-4.805,26.56-13.292,32.414-19.723c5.132,0.778,34.063-2.902,50.139,2.489c4.301-9.558,4.031-10.811,3.318-22.649
	c1.249,8.621,2.904,14.146,1.038,22.649c38.889-1.711,18.229-1.187,38.889-1.711c34.117,0,22.92-20.938,31.629-0.778
	c8.711,1.465,6.379,0,40.894,5.338c3.022-9.351-3.306-18.5-3.974-31.264c8.328,18.705,9.056,51.268,7.855,76.117
	c-0.202,4.225,2.93,8.816-0.75,11.898c-3.798,3.186,3.352,9.158,0.465,11.955c-2.436,2.354-0.208,4.771-2.072,9.955
	c3.254-2.593,7.776-9.748,6.234-13.524c-1.096-2.688-0.845-6.179,1.887-8.452c1.844-1.535,0.978-4.521,1.563-6.277
	c0.266,1.645,2.03,5.232-0.96,9.055c-2.297,2.934,4.441,7.791-2.758,12.006c-3.894,2.275,1.601,8.542-3.108,11.582
	c-3.149,2.033-1.726,6-1.726,6c1.871-0.325,2.348-4.275,5.647-4.896c3.276-0.617,3.484-6.113,7.085-10.344
	c3.98-4.676,2.104-7.177,2.148-10.688c0.07-5.256,4.31-5.513,4.586-15.092c0.111-3.81,3.595-6.459,4.389-9.604
	c0.583-2.312-0.556-5.149-0.117-6.981c0.857-3.596,3.043-6.939,3.229-7.744c1.404-6.058,0.412-10.248,0.412-10.248
	c2.695-18.789,1.465-24.926,1.558-24.352c-0.418-9.826-3.14-19.782-7.194-27.359c-9.957-22.716-32.248-39.142-60.406-51.423
	c0,0-6.551-2.333-11.196-3.684c-22.964-7.513-53.804-7.599-75.314-4.225C74.2,19.022,50.53,35.439,32.466,54.858
	c-14.447,16.981-20.592,32.77-20.592,52.727c0,9.599,1.337,25.274,4.287,35.11"/>
<path fill="#3A2C28" d="M243.481,169.95c2.49-5.202-1.896-52.455,0.207-55.585c3.672-5.463-1.363,10.191,1.037-1.867
	c-8.637-4.805-41.873-30.456-52.061-32.978c0.439-8.056-5.883,19.515-6.844,28.208c-18.043-2.488-26.133,7.467-31.34-16.004
	c0.045,1.252,2.967,16.642,3.028,16.782c-31.112-7.881-42.774-19.929-55.884-44.969C100.196,82.36,80.716,89.884,70,101.68
	c-14.788,13.707-25.031,33.806-25.237,51.436c-4.081-6.07-3.478-26.505-2.809-39.269c-0.62,7.778-1.024,15.504-1.25,22.928
	c-0.108,3.57-0.174,7.067-0.203,10.466c-0.047,5.602,0.002,10.933,0.135,15.868c0.128,4.775-3.525,9.537,0.597,13.097
	c3.539,3.058,4.277,9.403-0.597,14.794c0.104-8.294-1.504-9.812-5.082-13.583c-2.584-2.726-2.089-10.211-3.076-13.168
	c-0.28,1.731,0.216,5.349,1.089,9.704c1.24,6.197,9.521,15.826,4.861,19.787c-4.221,3.588,2.6,9.154,2.6,9.154
	c-3.171-0.556-13.352-5.615-9.637-12.049c4.319-7.479-7.428-9.095-5.616-14.207c2.003-5.652-0.279-11.046-4.382-13.889
	c-8.071-5.59-2.118-6.282-3.113-11.256c-1.309-6.538-5.435-4.98-3.319-13.404c2.654-4.438-1.312-10.795-1.312-10.795
	c-2.809-14.189-1.462-24.925-1.556-24.352c0.419-9.827,3.141-19.782,7.195-27.359c9.958-22.716,32.249-39.142,60.408-51.423
	c0,0,6.55-2.333,11.196-3.684c22.963-7.514,53.802-7.599,75.313-4.225c33.317,3.547,56.989,19.964,75.053,39.383
	c14.447,16.981,20.595,32.77,20.595,52.727c0,9.599-9.406,50.035-12.356,59.869"/>
</svg>
